<?xml version="1.0" standalone="no"?>
<!DOCTYPE svg PUBLIC "-//W3C//DTD SVG 20010904//EN"
 "http://www.w3.org/TR/2001/REC-SVG-20010904/DTD/svg10.dtd">
<svg version="1.0" xmlns="http://www.w3.org/2000/svg" viewBox="0 0 1000 600" preserveAspectRatio="xMidYMid meet">

<g transform="translate(0.000000,793.000000) scale(0.100000,-0.100000)"
stroke="none">
<path d="M5760 7898 c-31 -33 -26 -63 16 -87 42 -25 82 -104 91 -180 6 -53
-14 -128 -41 -150 -7 -6 -52 -18 -99 -27 -76 -14 -92 -21 -132 -56 -57 -50
-124 -183 -132 -260 -5 -48 -2 -56 27 -93 17 -22 38 -43 45 -48 7 -4 17 -22
20 -40 4 -17 16 -48 25 -68 19 -37 50 -69 50 -51 0 5 -7 15 -16 23 -32 27 -51
88 -45 152 3 37 21 15 21 -27 0 -59 36 -112 73 -108 33 3 73 -17 111 -57 35
-37 51 -34 104 16 82 77 141 115 186 120 38 5 54 15 108 67 34 33 90 79 123
101 33 22 92 65 130 96 39 30 108 84 154 119 93 70 93 78 -6 75 -44 -2 -61 -8
-105 -42 -69 -51 -158 -78 -229 -69 -62 8 -93 23 -136 66 -40 39 -42 71 -8
112 21 25 25 40 25 98 0 129 -64 237 -168 284 -22 10 -42 27 -45 37 -4 16 -15
19 -66 19 -49 0 -64 -4 -81 -22z m264 -737 c11 -12 14 -21 8 -21 -5 0 -22 14
-36 31 -29 34 -36 95 -13 118 10 10 13 0 17 -47 3 -39 12 -67 24 -81z m101
-21 c-3 -5 -23 -9 -43 -9 l-37 2 40 7 c22 4 41 8 43 9 2 0 0 -3 -3 -9z m-377
-116 c11 -41 17 -47 65 -69 28 -14 67 -25 85 -25 46 0 31 -17 -22 -25 -60 -9
-101 1 -142 37 -28 24 -34 37 -34 68 0 81 28 89 48 14z"/>
<path d="M7596 7771 c-20 -22 -79 -164 -132 -319 -20 -59 -40 -116 -45 -127
-4 -11 -21 -54 -37 -95 -145 -370 -208 -507 -261 -574 -18 -22 -44 -61 -58
-88 -28 -51 -43 -61 -43 -28 0 14 -9 21 -35 26 -19 3 -35 10 -35 15 0 5 -7 9
-15 9 -8 0 -24 5 -35 12 -15 10 -30 9 -75 -6 -45 -14 -86 -43 -211 -148 -86
-71 -175 -149 -198 -173 -59 -61 -211 -184 -260 -210 -23 -12 -51 -27 -61 -33
-11 -6 -88 -38 -171 -71 -84 -32 -180 -78 -215 -101 -78 -52 -289 -265 -326
-328 -22 -39 -86 -135 -99 -151 -2 -2 -8 9 -14 25 -9 24 -13 117 -9 244 2 64
23 183 46 268 22 80 33 102 72 145 26 29 59 69 74 90 31 42 54 50 42 15 -5
-13 -7 -50 -6 -83 2 -56 -3 -69 -54 -168 -54 -102 -55 -107 -33 -107 17 0 34
17 68 67 25 37 84 120 132 184 111 149 128 160 478 327 58 27 112 58 121 68 9
11 37 57 64 104 74 130 195 320 236 370 50 60 92 140 74 140 -7 0 -27 -12 -44
-26 -27 -22 -39 -25 -98 -24 -201 4 -220 2 -255 -30 l-33 -29 118 -1 c88 0
126 -4 149 -16 l31 -16 -26 -21 c-14 -12 -37 -41 -53 -65 -28 -44 -49 -50 -68
-20 -7 13 -6 26 6 51 l16 34 -45 7 c-56 7 -191 8 -218 0 -23 -6 -50 -45 -112
-161 l-44 -83 143 -1 c79 0 152 -4 163 -9 14 -6 -1 -9 -48 -9 -37 -1 -111 -6
-165 -11 l-97 -11 -47 -52 c-96 -105 -189 -237 -243 -343 -30 -60 -55 -115
-55 -121 0 -7 -4 -13 -10 -13 -5 0 -11 49 -12 113 -3 106 -4 110 -18 82 -8
-16 -34 -52 -59 -80 -24 -27 -54 -67 -68 -87 -26 -43 -59 -53 -47 -15 23 76
105 190 174 244 38 29 78 75 114 129 63 94 70 111 27 65 -21 -22 -38 -31 -61
-31 -21 0 -29 4 -24 11 10 18 -94 6 -135 -14 -43 -21 -47 -21 -26 0 15 15 16
18 2 28 -8 6 -48 76 -88 155 -71 141 -76 149 -188 261 -98 98 -128 122 -192
153 -42 20 -98 39 -125 42 -54 6 -124 32 -124 46 0 12 -28 10 -36 -4 -4 -7 -3
-8 4 -4 6 4 20 -1 30 -11 10 -10 52 -44 93 -75 41 -32 92 -79 114 -105 22 -26
65 -74 96 -108 65 -69 114 -153 125 -209 4 -22 18 -50 32 -63 15 -14 30 -44
38 -80 25 -104 28 -99 -109 -187 -67 -44 -164 -99 -214 -123 -51 -24 -106 -55
-122 -69 -25 -21 -34 -23 -74 -15 -25 4 -51 4 -59 0 -21 -13 -32 -10 -19 5 9
11 9 15 -1 18 -16 6 -58 -2 -58 -11 0 -4 -7 -16 -16 -27 -14 -17 -15 -13 -11
56 6 101 -17 352 -43 475 -30 135 -82 244 -171 355 -77 96 -113 120 -212 141
-75 17 -75 6 1 -39 138 -82 246 -251 321 -502 34 -115 41 -168 41 -322 0 -161
-11 -224 -56 -325 -14 -33 -21 -60 -16 -67 8 -10 50 -139 83 -254 7 -23 14
-40 17 -37 3 2 23 -33 46 -78 60 -118 168 -315 199 -362 14 -22 43 -56 63 -75
42 -40 40 -36 -32 91 -24 42 -44 79 -44 82 0 16 49 4 137 -35 77 -34 100 -49
120 -80 14 -21 29 -36 33 -33 24 15 89 -80 90 -132 0 -30 18 -39 28 -14 l7 21
34 -21 c32 -19 33 -21 27 -72 -6 -51 -5 -51 9 -22 8 17 14 36 15 43 0 7 5 10
10 7 6 -3 10 -31 10 -61 0 -40 4 -54 14 -54 8 0 16 5 18 11 2 5 11 7 21 4 21
-9 22 -50 2 -85 -24 -41 -17 -46 14 -10 25 31 30 33 45 21 11 -9 15 -23 12
-36 -4 -16 1 -23 24 -32 20 -8 28 -16 24 -26 -3 -8 0 -18 6 -22 8 -5 8 -10 0
-20 -8 -10 -6 -15 10 -20 15 -5 20 -14 18 -36 -2 -20 -7 -28 -16 -24 -33 12 4
-17 56 -45 58 -31 58 -31 111 -148 91 -201 102 -231 141 -388 21 -83 43 -161
49 -172 16 -30 88 -89 138 -113 52 -25 50 -34 -36 -111 l-60 -53 49 -98 49
-98 -42 -18 c-67 -29 -100 -33 -122 -17 -16 12 -17 16 -6 30 11 13 8 20 -18
47 -28 27 -31 28 -31 10 0 -23 -36 -37 -70 -26 -19 6 -20 3 -18 -37 3 -42 2
-43 -30 -46 -19 -2 -54 4 -80 12 -57 20 -72 20 -72 1 0 -34 -70 0 -162 78 -27
24 -57 41 -74 42 l-27 1 28 -21 c15 -11 58 -44 94 -74 36 -29 87 -64 114 -77
26 -13 47 -31 47 -39 0 -8 4 -15 8 -15 5 0 15 -15 24 -32 12 -26 13 -49 7
-103 -18 -169 -44 -258 -116 -397 -63 -120 -226 -251 -378 -302 -50 -16 -87
-20 -215 -20 -141 -1 -166 2 -280 31 -157 40 -324 104 -394 151 -131 90 -281
237 -329 323 -54 98 -71 172 -64 282 7 122 36 213 81 256 32 31 40 34 88 31
75 -4 73 -4 178 9 52 6 130 20 175 30 198 47 273 61 321 61 28 0 80 9 114 20
34 11 80 20 101 20 21 0 54 9 74 21 44 26 69 21 125 -26 23 -19 44 -35 46 -35
2 0 -19 24 -47 53 -27 28 -52 62 -55 75 -4 12 -8 22 -10 22 -2 0 -23 -13 -46
-29 -48 -33 -88 -48 -88 -32 0 5 -24 -1 -52 -14 -62 -29 -76 -30 -106 -9 -20
14 -32 12 -164 -31 -84 -28 -150 -44 -164 -41 -12 3 -68 -5 -123 -18 -136 -33
-203 -41 -231 -26 -13 7 -71 13 -141 13 -98 2 -116 0 -102 -10 9 -7 23 -13 31
-13 7 0 10 -5 6 -11 -10 -17 -42 -189 -53 -292 -10 -87 2 -222 24 -278 9 -23
-22 -33 -35 -11 -9 13 -10 10 -5 -15 4 -18 3 -38 -1 -45 -5 -7 -7 -26 -6 -43
l2 -30 -16 23 c-21 28 -44 29 -37 2 4 -16 2 -19 -11 -14 -22 8 -20 0 11 -54
l27 -47 -30 25 c-45 38 -83 81 -117 130 -29 41 -32 43 -35 22 -2 -13 4 -42 13
-64 16 -40 15 -41 -2 -28 -33 25 -115 114 -141 153 -15 22 -28 35 -30 29 -3
-11 61 -117 78 -127 5 -3 15 -15 21 -26 9 -19 9 -19 -10 -10 -11 6 -23 11 -28
11 -18 -1 84 -49 105 -50 38 0 64 -19 57 -41 -5 -15 -3 -17 10 -13 24 10 144
-111 145 -145 0 -14 1 -39 1 -54 1 -16 9 -37 19 -47 10 -10 24 -43 31 -74 8
-35 17 -56 26 -56 8 0 11 5 8 10 -3 6 0 10 7 9 27 -1 49 -15 61 -39 9 -17 25
-27 55 -33 23 -4 40 -12 37 -17 -17 -27 235 -116 282 -99 10 4 40 5 65 2 l47
-5 -34 -49 c-19 -27 -37 -58 -40 -69 -6 -20 -43 -33 -126 -45 -111 -16 -271
48 -401 160 l-77 66 19 44 c27 63 34 127 19 172 -19 60 -68 132 -100 149 -28
14 -30 14 -41 -11 -6 -14 -14 -25 -18 -25 -4 0 -28 16 -53 36 -42 32 -55 37
-112 40 -63 2 -66 2 -60 -19 4 -12 9 -30 11 -40 3 -9 -1 -19 -8 -22 -9 -4 -13
-17 -10 -41 5 -42 -7 -54 -56 -54 -21 0 -31 -4 -27 -11 5 -7 -15 -8 -66 -3
-70 7 -72 6 -66 -15 4 -16 1 -21 -15 -21 -19 0 -19 0 0 -27 27 -39 36 -72 23
-87 -9 -11 1 -29 45 -80 58 -68 64 -88 20 -68 -20 9 -25 8 -28 -4 -2 -13 -9
-11 -38 8 -19 14 -35 31 -34 40 1 10 -7 14 -30 12 -21 -1 -39 6 -57 23 -16 15
-36 23 -49 21 -18 -3 -14 -8 30 -41 29 -21 50 -40 48 -43 -8 -7 -83 19 -108
38 -22 17 -25 18 -28 4 -3 -14 -6 -14 -32 -1 -16 8 -44 33 -61 55 -36 44 -49
50 -49 20 0 -25 -2 -25 -48 -1 -45 23 -67 46 -85 89 l-14 33 -15 -41 c-9 -22
-23 -40 -31 -40 -21 0 -44 30 -52 68 -5 24 -10 30 -19 23 -15 -13 -94 87 -103
130 -5 29 -22 40 -24 17 -2 -25 -17 47 -18 89 l-1 42 58 -1 c66 -1 135 25 167
63 l20 24 -20 -17 c-26 -21 -88 -48 -113 -48 -13 0 -23 12 -31 38 -11 33 -10
43 13 95 29 65 18 76 -29 30 -34 -34 -65 -39 -65 -10 0 40 -20 2 -34 -64 -14
-70 -6 -223 18 -318 9 -38 15 -46 33 -44 16 2 25 -7 37 -39 9 -22 15 -43 12
-45 -8 -9 -81 53 -96 81 -16 31 -26 33 -35 6 -13 -41 -48 -19 -60 37 -4 20
-11 30 -19 27 -14 -6 -46 36 -46 61 0 8 -8 15 -17 15 -9 0 -29 15 -45 33 -22
24 -17 12 19 -52 91 -159 211 -279 380 -379 88 -52 98 -61 47 -42 -17 7 -31 7
-38 1 -8 -7 -26 -3 -54 9 -58 26 -138 83 -124 88 23 7 11 25 -78 119 -89 93
-126 143 -188 253 l-32 55 -1 -35 -1 -35 -16 47 c-23 63 -28 65 -24 8 2 -27
-2 -59 -10 -73 -11 -23 -13 -9 -13 111 0 136 -23 408 -33 397 -3 -3 -7 -29 -8
-57 -2 -29 -8 -54 -13 -56 -6 -2 -11 -30 -11 -62 0 -32 -5 -62 -10 -65 -15
-10 -40 58 -40 110 0 25 -4 45 -10 45 -12 0 -11 5 -16 -100 -4 -104 -11 -140
-25 -119 -12 19 -11 2 2 -45 10 -37 9 -40 -27 -77 -30 -30 -33 -37 -16 -32 38
9 36 -22 -4 -73 -50 -66 -68 -78 -87 -59 -13 12 -17 12 -31 -4 -16 -18 -15
-24 28 -109 45 -89 45 -90 25 -108 -18 -16 -19 -20 -5 -30 14 -9 13 -21 -7
-102 -17 -72 -26 -92 -39 -92 -25 0 -23 -41 4 -75 11 -15 43 -47 70 -72 41
-40 48 -51 48 -85 0 -31 5 -41 24 -49 16 -8 28 -25 34 -50 9 -36 9 -38 -9 -28
-29 15 -34 -11 -15 -69 21 -62 67 -90 161 -99 36 -3 68 -9 70 -13 2 -3 -3 -19
-11 -34 -22 -43 -17 -43 27 -1 l42 40 -6 -40 c-3 -22 -8 -49 -13 -60 -5 -16 1
-13 27 11 19 17 44 38 57 46 l23 16 -26 6 c-17 4 -25 13 -26 29 0 12 -3 16 -6
10 -5 -15 -43 -18 -43 -4 0 5 13 48 30 94 16 47 30 90 30 97 0 6 6 26 14 45
l15 35 43 -20 c24 -11 57 -19 73 -19 l30 0 -36 15 c-30 13 -35 19 -31 40 2 13
8 27 13 30 11 7 58 -27 59 -42 0 -7 7 -15 16 -18 8 -3 12 -11 8 -18 -14 -22
87 1 144 34 41 23 57 28 60 18 3 -7 20 -30 39 -51 44 -49 91 -63 163 -49 63
12 112 46 142 101 24 41 53 49 53 15 0 -12 8 -20 20 -21 11 -2 32 -5 47 -8 15
-3 30 -1 33 4 10 15 21 10 35 -16 10 -19 16 -22 27 -14 7 6 13 16 13 22 0 6 8
19 17 29 16 17 15 20 -15 51 -37 38 -39 48 -14 70 14 13 53 17 197 23 168 6
182 8 212 30 17 13 42 24 55 24 14 0 37 13 53 30 20 21 37 29 54 28 25 -3 26
-1 23 45 -2 26 0 47 3 47 3 0 46 -31 95 -69 105 -81 155 -107 236 -122 59 -11
203 -7 237 6 15 6 17 0 17 -64 0 -73 16 -129 48 -164 9 -11 18 -31 18 -46 1
-14 3 -27 4 -28 1 -2 4 -7 5 -13 1 -5 4 -13 5 -17 1 -5 3 -13 4 -20 0 -7 16
-23 35 -37 18 -14 44 -41 58 -61 19 -29 29 -35 46 -29 37 10 64 32 94 71 15
21 40 50 55 66 16 15 28 35 28 45 -1 13 -4 11 -15 -8 -14 -24 -15 -22 -12 33
2 55 1 60 -24 72 -15 8 -30 11 -34 7 -4 -4 0 5 10 21 9 15 19 27 21 27 3 0 46
-25 97 -56 188 -115 209 -126 265 -136 68 -13 160 -1 175 23 14 22 -30 116
-82 172 -22 24 -38 47 -34 50 3 4 1 7 -5 7 -6 0 -62 33 -124 73 -62 41 -144
91 -181 112 l-69 38 -31 -23 -32 -23 28 30 28 30 -48 31 c-30 20 -41 32 -30
32 14 0 163 -90 212 -128 6 -4 33 -21 60 -36 28 -16 60 -36 73 -44 20 -13 22
-13 16 2 -5 13 1 15 45 12 57 -4 68 -11 149 -96 43 -44 52 -50 47 -30 -3 14
-7 32 -8 40 -1 8 -6 18 -12 22 -6 5 -5 8 3 8 14 0 16 46 2 55 -5 3 -10 15 -10
26 0 12 4 17 11 14 6 -4 9 -1 8 6 -4 23 11 77 26 89 8 6 17 25 20 42 4 17 15
32 26 35 10 3 23 20 29 38 6 18 18 39 27 47 14 11 15 9 9 -22 l-7 -35 21 37
c13 25 30 40 48 44 74 16 94 29 147 87 54 61 55 62 55 32 1 -30 1 -29 58 33
56 62 82 76 82 47 0 -8 7 -15 15 -15 27 0 65 -170 65 -296 l0 -71 83 -6 c102
-8 414 -7 487 1 49 6 57 11 82 47 32 47 138 275 179 388 21 57 26 79 17 81 -7
3 -39 12 -72 22 -32 10 -80 34 -105 54 -26 20 -53 39 -61 43 -10 3 -7 6 8 6
30 1 28 16 -6 30 -15 6 -33 25 -41 41 -7 17 -26 37 -42 45 -30 16 -40 32 -14
21 24 -9 18 3 -16 31 -17 14 -28 32 -25 39 6 16 -13 64 -25 64 -17 0 -42 52
-46 93 -3 23 -6 44 -9 46 -2 2 -26 6 -54 9 -83 8 -66 19 40 25 84 5 108 11
162 38 133 66 473 276 517 319 25 24 64 54 85 65 31 16 43 31 60 73 19 50 26
56 86 86 134 65 392 221 500 302 61 46 116 84 122 84 28 0 146 317 136 367 -3
19 -156 -203 -173 -251 -12 -35 -55 -69 -77 -61 -9 4 -41 41 -72 84 -30 43
-107 133 -171 200 -63 68 -115 127 -115 132 0 5 -4 9 -10 9 -5 0 -10 -8 -10
-17 0 -45 -143 -286 -202 -340 -31 -29 -111 -35 -136 -9 -16 16 -16 17 1 10
26 -10 11 21 -17 34 -13 6 -48 31 -79 56 -31 25 -65 46 -75 46 -9 0 -39 -22
-66 -50 -30 -31 -76 -63 -123 -86 -41 -19 -91 -51 -111 -71 -33 -31 -87 -66
-94 -62 -2 1 -19 -1 -39 -5 -46 -8 -142 25 -180 63 -24 24 -59 102 -75 167 -5
21 -4 26 7 21 150 -63 186 -77 200 -77 14 0 96 101 110 135 7 18 151 230 172
252 19 21 44 23 32 2 -4 -5 -1 -9 5 -9 7 0 95 -82 197 -182 102 -101 187 -178
189 -173 3 6 32 48 65 95 34 47 86 127 116 178 31 50 58 92 62 92 25 0 225
-216 352 -379 59 -76 63 -80 76 -61 16 22 11 45 -38 198 -17 50 -29 98 -26
105 2 6 10 -7 17 -31 l13 -42 29 59 c36 75 86 107 202 128 175 31 207 43 258
94 37 37 51 61 68 115 25 84 27 87 66 107 17 9 37 30 44 47 12 29 11 34 -16
67 -17 20 -38 37 -48 39 -25 4 -33 14 -17 24 8 4 11 15 7 25 -3 9 -3 42 1 73
5 47 13 63 46 99 22 24 45 43 52 43 34 0 115 142 136 236 7 33 19 67 27 76 8
10 14 40 15 75 0 47 -8 78 -41 158 -60 144 -80 227 -63 258 13 25 12 87 -5
245 -4 42 -3 67 5 75 38 38 -19 210 -83 248 -43 25 -116 118 -116 147 0 40 32
102 64 125 17 12 52 32 79 44 47 22 47 23 47 70 0 28 -7 58 -16 71 -8 12 -14
36 -12 52 2 21 -5 38 -28 62 -17 18 -43 54 -57 79 -39 70 -142 149 -192 149
-23 0 -20 -7 34 -81 27 -37 54 -75 59 -85 16 -30 23 -98 12 -114 -7 -11 -10
-4 -10 28 0 48 -9 69 -51 123 -31 39 -103 79 -143 79 -13 0 -26 6 -29 13 -2 6
-8 8 -13 4 -4 -4 0 -36 9 -70 26 -90 51 -206 98 -443 34 -173 42 -237 46 -369
9 -256 -24 -654 -73 -890 -17 -81 -53 -190 -60 -182 -2 2 2 39 10 83 8 43 17
105 20 138 l6 58 -41 -31 c-23 -17 -54 -49 -69 -72 -15 -22 -59 -73 -96 -112
-38 -40 -81 -88 -96 -107 -15 -19 -28 -30 -27 -25 0 15 45 73 120 157 118 132
172 221 223 370 19 57 26 96 26 155 0 43 5 143 10 223 17 237 -10 548 -66 790
-32 136 -111 408 -128 440 -35 65 -45 87 -53 114 -4 16 -17 35 -29 42 -18 13
-23 12 -38 -5z m409 -976 c13 -47 21 -58 55 -75 39 -20 69 -50 37 -37 -10 4
-24 10 -34 14 -11 4 -14 3 -9 -5 12 -20 -19 -14 -38 7 -31 35 -55 151 -31 151
2 0 11 -25 20 -55z m-1800 -204 c12 -21 -50 -91 -105 -117 -221 -106 -286
-142 -395 -219 -27 -18 -27 5 -1 49 31 53 116 157 195 239 l55 57 123 0 c67 0
124 -4 128 -9z m1485 -128 c0 -16 -5 -35 -11 -43 -8 -11 -9 -7 -4 18 8 38 2
39 -71 17 -59 -18 -57 -18 -52 -3 3 7 29 17 59 24 79 17 79 17 79 -13z m-2516
-106 c-27 -30 -66 -83 -87 -118 -98 -167 -176 -464 -177 -669 0 -95 -2 -107
-21 -124 -37 -31 -44 -8 -48 156 -2 91 -7 145 -12 137 -7 -11 -9 -10 -9 5 0
15 -6 13 -32 -14 -18 -18 -52 -41 -76 -51 l-43 -19 -40 32 c-21 17 -39 35 -39
39 0 4 -24 36 -54 70 -30 34 -61 81 -69 105 l-14 42 101 65 c56 36 164 100
241 142 77 43 147 83 155 89 22 17 178 106 187 106 5 1 24 14 43 30 50 43 48
37 -6 -23z m2750 -1006 c3 -4 -10 -5 -28 -3 -83 10 -183 -87 -199 -192 -5 -34
-3 -42 23 -66 30 -28 37 -56 31 -120 -5 -49 -16 -38 -18 18 -2 43 -8 60 -22
72 -23 17 -51 79 -51 110 0 37 41 118 69 137 63 43 180 69 195 44z m136 -16
c-7 -8 -17 -15 -23 -15 -5 0 -2 9 8 20 21 23 35 19 15 -5z m-855 -75 c22 -13
54 -26 70 -30 l30 -8 -30 -1 c-55 -1 -159 61 -186 112 -9 15 0 11 32 -15 24
-19 62 -45 84 -58z m138 -37 c-7 -2 -19 -2 -25 0 -7 3 -2 5 12 5 14 0 19 -2
13 -5z m612 -230 c-16 -8 -38 -22 -48 -31 -22 -19 -35 -8 -16 14 16 19 46 33
74 33 16 0 13 -3 -10 -16z m-2185 -1733 c13 -9 13 -11 0 -20 -18 -12 -90 -13
-90 -1 0 4 15 13 33 19 42 13 40 13 57 2z m-94 -35 c37 -28 48 -60 59 -165 l7
-65 -28 25 -27 25 6 -25 c16 -65 30 -170 23 -177 -14 -14 -65 61 -76 112 -18
83 -41 157 -48 151 -6 -7 -32 49 -32 70 0 9 12 13 38 11 36 -2 37 -1 34 31 -3
39 2 39 44 7z m301 -301 c124 -18 153 -29 109 -40 -29 -7 -163 1 -203 12 -20
6 -40 44 -22 44 4 0 57 -7 116 -16z m-384 -78 c-2 -50 -10 -93 -22 -121 -26
-59 -91 -154 -91 -132 0 30 -14 19 -49 -39 -18 -30 -35 -53 -38 -51 -2 3 7 31
20 63 14 33 30 77 37 99 17 54 32 73 40 50 8 -21 55 83 65 142 11 61 16 74 28
70 8 -3 11 -30 10 -81z m457 -6 c75 -17 99 -26 113 -46 10 -13 14 -24 8 -24
-33 0 -278 44 -285 51 -6 6 -3 9 7 9 10 0 17 8 17 20 0 16 5 19 23 16 12 -3
65 -14 117 -26z m-66 -76 c33 -10 107 -26 164 -38 108 -22 129 -37 65 -46 -37
-5 -36 -6 32 -23 148 -38 96 -50 -87 -21 -79 12 -102 13 -114 3 -8 -7 -40 -54
-71 -106 -31 -51 -60 -96 -66 -100 -13 -8 1 92 19 136 8 18 14 43 14 55 0 12
5 27 11 33 8 8 6 14 -9 22 -11 6 -22 23 -24 38 -3 16 -9 36 -13 46 -9 21 0 22
79 1z m471 -376 c-48 -111 -134 -266 -151 -272 -9 -3 -48 -5 -87 -4 l-72 1 65
6 c36 4 75 12 88 19 31 18 175 306 167 335 -5 22 -5 22 6 0 10 -19 7 -33 -16
-85z m-4727 83 c20 -12 -14 -91 -39 -91 -23 0 -24 8 -3 60 17 42 21 45 42 31z
m202 -39 c0 -7 -4 -10 -10 -7 -5 3 -10 16 -10 28 0 18 2 19 10 7 5 -8 10 -21
10 -28z m2803 -153 c79 0 157 3 173 6 28 6 28 6 10 -9 -11 -9 -33 -16 -48 -16
-16 0 -40 -7 -53 -16 -13 -9 -32 -13 -42 -10 -17 5 -53 9 -182 21 -30 2 -56 7
-58 9 -12 12 12 27 32 22 13 -3 88 -6 168 -7z m-416 -185 c-3 -3 -12 -4 -19
-1 -8 3 -5 6 6 6 11 1 17 -2 13 -5z m-2653 -10 c12 -5 16 -20 16 -59 0 -65 -7
-85 -30 -85 -20 0 -30 27 -30 82 0 61 10 75 44 62z m2653 -60 c6 -17 -29 -60
-58 -67 -10 -3 -19 -3 -19 0 0 9 23 48 38 66 19 21 31 22 39 1z m-1750 0 c-3
-3 -12 -4 -19 -1 -8 3 -5 6 6 6 11 1 17 -2 13 -5z m1855 -63 c23 -21 30 -33
23 -40 -13 -13 -85 35 -85 56 0 22 28 15 62 -16z m617 -20 c43 -39 47 -61 12
-61 -18 0 -91 64 -91 80 0 7 16 17 30 19 3 0 25 -17 49 -38z m-611 -98 c40
-28 79 -54 85 -56 8 -3 6 -11 -7 -26 -24 -27 -29 -26 -74 4 -20 14 -40 25 -45
25 -4 0 -12 -11 -17 -25 -5 -14 -16 -25 -24 -25 -8 0 -28 -11 -44 -25 l-30
-25 -21 44 c-12 24 -24 73 -28 110 l-6 66 54 23 53 24 15 -31 c9 -17 49 -54
89 -83z m-1871 101 c-3 -3 -12 -4 -19 -1 -8 3 -5 6 6 6 11 1 17 -2 13 -5z
m2086 -103 c73 -49 141 -99 151 -110 17 -19 17 -21 2 -27 -11 -4 -64 26 -161
91 -80 53 -145 98 -145 100 0 9 13 35 17 35 2 0 64 -40 136 -89z m-2420 -17
c34 -17 107 -83 107 -96 0 -15 -45 -7 -90 17 -25 13 -42 24 -37 25 4 0 1 13
-8 30 -24 46 -21 49 28 24z m403 -69 c16 -14 36 -25 45 -25 9 0 19 -3 23 -7 4
-5 11 -8 14 -9 4 0 15 -4 25 -9 38 -16 -37 -65 -102 -65 -66 0 -125 32 -153
84 -9 17 -7 18 15 12 14 -3 29 -2 32 4 3 5 22 10 40 10 26 0 33 3 29 15 -8 21
-2 19 32 -10z m-206 -10 c-7 -8 -19 -15 -26 -15 -8 0 -11 6 -8 15 4 8 15 15
26 15 17 0 18 -3 8 -15z m2600 -129 c0 -12 -66 2 -125 27 -62 26 -58 22 -51
44 5 17 13 15 91 -22 46 -22 84 -44 85 -49z"/>
<path d="M4710 5975 c-41 -30 -65 -66 -85 -127 -11 -31 -13 -53 -7 -65 5 -10
17 -35 27 -55 16 -33 21 -37 44 -31 46 11 79 32 102 65 13 18 27 36 32 39 5 3
11 42 14 86 5 66 3 82 -11 96 -25 25 -76 21 -116 -8z"/>
<path d="M2716 7240 c3 -19 16 -53 28 -75 23 -42 97 -105 124 -105 15 1 15 2
-1 11 -23 14 -13 28 16 22 12 -2 -3 9 -33 27 -71 40 -98 66 -122 115 l-19 40
7 -35z"/>
<path d="M2703 7052 c33 -34 122 -77 182 -88 58 -10 38 4 -31 21 -33 9 -86 34
-119 56 -54 37 -57 38 -32 11z"/>
<path d="M3530 6991 c0 -4 36 -18 79 -30 85 -25 133 -52 194 -110 63 -59 65
-80 2 -24 -31 28 -85 66 -118 84 -61 32 -62 32 -229 36 -92 2 -168 2 -168 0 0
-3 26 -14 59 -26 32 -12 64 -28 71 -36 15 -18 20 -19 -70 5 -93 24 -112 25
-85 3 19 -15 19 -15 -5 -9 -14 3 -54 9 -90 11 l-65 5 67 -19 c115 -32 159 -59
190 -116 23 -44 66 -193 71 -247 1 -10 5 -18 9 -18 4 0 2 -13 -3 -29 -11 -32
-100 -121 -120 -121 -7 0 -10 -2 -7 -6 7 -7 162 32 211 53 74 32 143 151 134
231 -4 38 -3 42 6 26 7 -10 11 -49 11 -86 l-1 -67 22 15 c18 12 24 12 33 1 14
-17 -15 -77 -60 -124 -59 -62 -258 -136 -278 -104 -6 10 -36 9 -141 -4 -163
-20 -260 -45 -342 -88 -83 -43 -85 -43 -63 -18 28 31 12 26 -27 -9 -34 -29
-35 -30 -70 -15 -53 22 -72 20 -47 -5 26 -26 27 -44 1 -31 -10 6 -21 8 -24 4
-4 -3 -13 -1 -20 6 -11 8 -21 8 -42 -3 -17 -9 -59 -14 -112 -15 -66 0 -93 -4
-124 -20 -51 -27 -52 -27 -47 8 6 43 -16 29 -62 -40 -39 -56 -41 -57 -72 -48
-39 11 -64 12 -54 2 7 -7 -90 -42 -134 -48 -14 -2 -36 -7 -50 -10 -42 -12 44
44 93 61 l42 13 -45 -6 c-25 -3 -62 -14 -82 -24 -20 -10 -44 -16 -52 -13 -15
6 -60 -54 -88 -118 -13 -27 -13 -27 -98 -24 -47 2 -65 2 -40 -1 25 -2 52 -6
60 -9 13 -4 13 -6 0 -14 -8 -6 -25 -10 -37 -10 -12 0 -26 -6 -30 -12 -4 -7
-39 -28 -77 -46 -50 -24 -67 -29 -62 -17 3 9 0 18 -9 21 -24 10 -17 31 18 53
54 35 14 23 -47 -14 -66 -40 -75 -42 -55 -17 8 10 -1 2 -18 -17 -18 -20 -38
-51 -44 -68 -10 -30 -14 -33 -52 -33 -33 -1 -38 -3 -24 -11 28 -16 20 -29 -18
-29 -19 0 -35 -4 -35 -9 0 -5 -16 -12 -35 -15 -53 -10 -101 -33 -138 -66 -19
-16 -37 -27 -41 -23 -3 3 -6 -8 -6 -25 0 -29 -3 -32 -33 -32 -18 0 -37 -4 -43
-8 -5 -5 -29 -15 -53 -22 -39 -13 -42 -15 -21 -20 23 -6 23 -6 -11 -28 -18
-12 -44 -29 -57 -38 -32 -24 -40 -9 -11 23 l24 27 -31 -22 c-17 -11 -37 -28
-44 -37 -7 -8 -18 -15 -25 -15 -15 0 -33 -51 -68 -192 -20 -80 -30 -102 -59
-131 -29 -29 -39 -50 -53 -112 -17 -76 -17 -77 9 -178 14 -56 26 -105 26 -109
0 -4 -10 -8 -22 -10 -13 -2 -23 -8 -23 -15 0 -6 -9 -22 -20 -35 -28 -32 -45
-74 -45 -109 0 -16 -6 -42 -14 -58 -8 -15 -27 -76 -41 -137 -15 -60 -31 -117
-36 -126 -7 -13 3 -26 50 -62 74 -58 89 -85 77 -147 -5 -25 -6 -66 -2 -90 6
-38 14 -50 52 -79 87 -67 173 -145 202 -185 76 -102 200 -195 261 -195 9 0 40
-26 68 -59 49 -56 175 -142 291 -200 53 -27 182 -74 188 -68 2 2 -14 18 -36
36 -75 60 -174 231 -186 324 -8 53 3 59 54 33 54 -28 188 -65 260 -71 l72 -7
97 92 c88 84 102 104 156 209 60 116 133 232 234 368 29 40 53 75 53 78 0 11
-50 4 -50 -7 -1 -15 -36 -42 -69 -53 -16 -5 -21 -4 -17 4 4 6 3 11 -3 11 -28
0 -117 -142 -162 -257 -11 -29 -37 -29 -83 -2 -33 19 -110 29 -123 15 -4 -3 9
-6 28 -6 20 0 44 -7 55 -15 16 -13 17 -16 4 -25 -8 -5 -23 -10 -32 -10 -10 0
-40 -9 -68 -20 -56 -22 -78 -24 -100 -10 -12 7 -11 12 5 31 19 20 17 20 -32
-5 -29 -14 -62 -26 -74 -26 -21 0 -89 -36 -89 -47 0 -4 12 -21 26 -40 46 -60
27 -67 -56 -21 -41 23 -69 43 -62 46 7 2 20 -2 30 -9 9 -7 1 5 -19 26 -50 55
-54 80 -25 167 39 119 116 310 141 354 57 97 214 213 429 318 189 91 380 151
656 205 203 39 210 40 210 29 0 -11 -91 -148 -135 -203 -66 -82 -125 -175
-102 -161 38 24 67 29 67 12 0 -9 8 -16 19 -16 11 0 22 -4 25 -9 4 -5 -51 -78
-121 -162 -83 -100 -129 -147 -132 -138 -9 21 -27 17 -67 -14 -19 -16 -41 -30
-48 -31 -77 -11 -293 -332 -368 -546 -24 -68 -54 -213 -63 -300 -7 -69 6 -236
27 -348 l13 -67 6 160 c8 186 25 260 77 350 6 11 34 72 61 136 85 203 224 415
456 697 33 41 73 90 88 110 49 64 110 122 130 122 10 0 15 -4 12 -10 -13 -22
6 -8 45 31 22 23 63 53 91 69 l51 28 53 -19 c82 -29 273 -13 389 32 27 10 57
19 66 19 10 0 38 11 61 25 24 14 52 25 62 25 9 0 27 10 40 23 12 12 26 21 30
19 5 -1 28 14 53 34 35 29 42 40 33 50 -9 11 -7 20 5 39 19 29 8 33 -40 15
-46 -18 -38 -2 13 23 71 36 361 97 458 97 18 0 37 5 40 10 4 7 26 8 57 4 63
-9 58 8 -10 31 -26 8 -56 23 -67 31 -19 16 -19 16 5 9 14 -4 38 -14 53 -22 45
-22 41 -10 -6 21 -56 37 -19 27 94 -26 48 -22 92 -39 99 -36 12 4 -50 65 -125
125 -54 43 -38 53 23 14 63 -40 70 -39 33 6 -63 76 -30 72 57 -8 64 -58 203
-149 250 -163 42 -14 22 13 -56 73 -102 77 -181 150 -234 214 -39 49 -40 50
-7 22 19 -17 45 -39 59 -50 25 -20 25 -20 10 0 -8 11 -17 22 -20 25 -3 3 -18
21 -35 39 l-30 35 45 -36 c25 -20 56 -39 69 -43 l24 -7 -20 28 c-32 47 -77
134 -71 139 3 3 24 -25 46 -63 23 -38 49 -75 58 -83 15 -13 16 -12 9 10 -5 16
-4 21 4 17 16 -10 14 -2 -14 50 -28 54 -32 76 -10 68 8 -3 34 -42 57 -85 23
-44 51 -87 62 -97 18 -16 18 -16 8 4 -6 11 -7 26 -3 33 6 8 17 1 37 -26 51
-68 166 -194 171 -189 6 6 -29 58 -74 109 -19 21 -41 55 -51 75 -9 20 -64 114
-122 207 -58 94 -127 205 -154 248 -26 42 -50 77 -52 77 -18 0 -51 -30 -106
-98 -221 -272 -332 -364 -613 -509 -237 -122 -602 -241 -707 -231 -31 3 -29 4
27 24 216 76 534 232 670 329 65 46 118 95 111 103 -3 2 -43 -18 -89 -46 -370
-223 -581 -310 -920 -382 -143 -30 -451 -114 -587 -160 -98 -33 -393 -175
-470 -225 -120 -80 -212 -199 -284 -367 -68 -161 -113 -394 -101 -528 6 -70
-6 -60 -23 20 -9 42 -10 39 -11 -45 -1 -58 -5 -85 -10 -75 -12 20 -61 194 -61
215 0 9 -10 30 -21 47 -28 39 -39 23 -39 -55 0 -49 -3 -58 -17 -55 -9 2 -21
18 -28 37 -15 45 -39 61 -61 40 -11 -12 -16 -38 -17 -97 -1 -44 -5 -76 -9 -69
-4 6 -5 14 -2 18 2 4 -4 9 -14 11 -16 5 -27 35 -62 166 -6 24 -21 53 -32 64
l-21 21 6 -31 c4 -17 2 -34 -2 -37 -10 -6 -31 47 -31 77 0 11 -23 67 -51 125
-66 134 -69 169 -28 272 34 86 33 112 -8 199 -21 45 -23 58 -14 78 18 40 13
49 -14 24 -31 -29 -32 -22 -4 24 20 35 57 52 45 21 -3 -9 0 -15 8 -15 8 0 16
7 20 15 3 8 10 15 16 15 20 0 111 75 116 96 6 23 -19 134 -36 162 -7 12 -8 2
-5 -33 5 -49 5 -49 -9 -20 -7 17 -16 42 -20 57 -6 26 -5 27 24 22 26 -6 30 -3
30 14 0 12 9 23 20 27 32 10 46 41 80 185 17 74 34 141 36 149 3 10 11 11 32
5 41 -14 149 -9 168 7 23 19 73 125 80 171 4 21 12 42 18 46 6 5 59 16 119 25
59 9 118 24 132 33 14 9 47 46 74 83 41 55 171 191 183 191 1 0 50 -9 108 -19
l104 -18 87 83 c71 68 93 84 118 84 17 0 31 -4 31 -9 0 -5 18 -11 41 -15 37
-6 46 -3 85 29 24 20 45 35 46 33 2 -1 30 13 62 31 54 31 66 34 135 33 94 -1
108 3 115 32 8 33 63 41 119 16 23 -10 71 -24 107 -31 36 -7 67 -16 70 -20 9
-14 138 -29 244 -29 86 0 111 4 204 35 146 49 216 89 291 164 53 53 61 66 47
71 -17 5 -17 7 -2 20 9 7 31 32 49 54 l32 41 -55 -48 c-29 -27 -67 -55 -84
-64 -54 -28 -164 -61 -243 -73 -84 -13 -293 -7 -373 11 -25 6 -60 13 -77 16
-18 3 -33 9 -33 13 0 14 77 17 235 9 88 -4 176 -9 195 -10 19 -1 27 -3 18 -6
-22 -6 -24 -23 -3 -23 9 0 50 7 92 16 124 25 225 73 216 101 -2 6 15 31 37 55
52 53 96 138 105 201 8 52 -12 180 -26 171 -5 -3 -9 1 -9 9 0 35 -64 138 -118
189 -83 79 -120 96 -214 96 -43 0 -78 -3 -78 -7z m-10 -459 c0 -38 -10 -56
-41 -80 -14 -11 -14 -3 5 53 11 36 24 65 28 65 5 0 8 -17 8 -38z m89 29 c33
-21 -30 -131 -75 -131 -21 0 -17 23 13 85 27 56 36 62 62 46z m236 -133 l-16
-33 21 24 c11 13 20 18 20 12 0 -23 -72 -89 -113 -104 -23 -9 -68 -25 -101
-37 -57 -20 -86 -21 -86 -1 0 5 10 13 23 17 42 13 132 82 197 150 l65 69 3
-32 c2 -17 -4 -47 -13 -65z m-1428 -354 c-3 -3 -12 -4 -19 -1 -8 3 -5 6 6 6
11 1 17 -2 13 -5z m1054 -7 c19 -14 18 -15 -18 -21 -63 -10 -210 -7 -240 5
-28 12 -28 12 -5 18 13 3 73 7 133 9 82 2 115 -1 130 -11z m-968 -35 c-27 -27
-47 -38 -64 -36 -13 1 -35 3 -48 3 l-24 1 23 25 c26 28 66 43 119 44 l33 1
-39 -38z m337 28 c0 -5 -2 -10 -4 -10 -3 0 -8 5 -11 10 -3 6 -1 10 4 10 6 0
11 -4 11 -10z m-740 -131 c-57 -49 -76 -60 -94 -53 -22 8 -20 16 8 43 24 22
65 39 101 40 16 0 14 -5 -15 -30z m50 -36 c-45 -39 -61 -46 -70 -37 -12 12 9
37 50 62 48 30 62 11 20 -25z m-522 -178 c-3 -3 -27 -21 -54 -40 -50 -36 -77
-39 -34 -4 30 24 106 62 88 44z m-68 -90 c-13 -14 -30 -25 -38 -25 -12 0 -9 7
8 25 13 14 30 25 38 25 12 0 9 -7 -8 -25z m65 -41 c-33 -29 -64 -53 -70 -53
-5 0 19 27 54 59 36 33 67 57 70 54 4 -3 -21 -30 -54 -60z m-307 -26 c2 -13
-3 -18 -17 -18 -12 0 -19 -5 -16 -12 3 -8 -15 -22 -43 -36 -26 -12 -58 -29
-72 -37 -17 -10 -26 -11 -31 -3 -5 7 -17 4 -36 -11 -24 -19 -28 -20 -31 -7 -5
25 37 91 70 111 44 25 77 34 128 32 34 -2 46 -6 48 -19z m-33 -129 c15 -24
-107 -119 -153 -119 -36 0 -23 19 54 77 70 54 88 61 99 42z m-335 -94 c0 -8
-5 -15 -10 -15 -13 0 -109 -70 -129 -93 -14 -18 -41 -23 -41 -8 0 20 67 95
100 112 42 23 80 25 80 4z m250 -74 c0 -10 -24 -21 -43 -21 -7 0 -3 7 7 15 22
17 36 19 36 6z m-302 -30 c11 -6 7 -21 -17 -70 -32 -63 -37 -67 -60 -52 -18
12 -7 56 25 99 27 34 32 36 52 23z m112 -99 c-6 -9 -19 -39 -29 -67 -22 -59
-50 -68 -63 -20 -10 37 -2 75 16 75 8 0 21 11 30 25 14 21 20 24 36 15 15 -8
18 -14 10 -28z m-360 -171 c0 -6 -4 -13 -10 -16 -5 -3 -14 -24 -20 -45 -13
-47 -30 -53 -30 -10 0 41 20 80 42 80 10 0 18 -4 18 -9z m24 -106 c-4 -8 -10
-13 -15 -10 -4 3 -6 12 -3 20 4 8 10 13 15 10 4 -3 6 -12 3 -20z m17 -638
c-14 -36 -31 -34 -31 3 0 20 5 30 15 30 8 0 16 10 16 23 2 19 2 19 6 -4 2 -14
-1 -37 -6 -52z m1084 -557 c-3 -5 -11 -10 -16 -10 -6 0 -7 5 -4 10 3 6 11 10
16 10 6 0 7 -4 4 -10z m-900 -140 c8 -13 -1 -13 -26 0 -10 6 -19 15 -19 21 0
11 35 -5 45 -21z m845 -59 c0 -11 -36 -21 -82 -21 -52 0 -57 18 -6 23 82 7 88
7 88 -2z"/>
<path d="M2943 6903 c9 -2 23 -2 30 0 6 3 -1 5 -18 5 -16 0 -22 -2 -12 -5z"/>
<path d="M1598 5833 c7 -3 16 -2 19 1 4 3 -2 6 -13 5 -11 0 -14 -3 -6 -6z"/>
<path d="M3105 5096 c-22 -7 -64 -25 -93 -40 -81 -41 -450 -168 -627 -215 -93
-25 -155 -50 -155 -63 0 -5 -4 -7 -9 -4 -5 3 -37 -9 -72 -27 -35 -18 -88 -43
-117 -56 -92 -39 -51 -33 99 15 157 49 227 69 394 113 242 64 507 163 551 207
11 10 37 34 59 52 42 34 35 39 -30 18z"/>
<path d="M4587 4966 c-12 -29 135 -166 179 -166 10 0 -125 147 -151 164 -18
12 -24 13 -28 2z"/>
<path d="M3947 4736 c-38 -13 -92 -43 -122 -65 -30 -23 -58 -41 -63 -41 -5 0
-16 -7 -23 -17 -8 -9 -9 -14 -4 -12 6 3 51 25 100 49 92 45 178 61 241 46 14
-4 59 -37 99 -74 40 -37 88 -78 105 -91 l32 -25 -7 25 c-19 61 -66 135 -97
154 -9 6 -35 23 -56 38 -56 40 -119 44 -205 13z"/>
<path d="M3974 4512 c-58 -32 -102 -77 -130 -132 -24 -48 -27 -65 -26 -140 2
-78 4 -86 29 -110 26 -24 36 -25 168 -31 77 -3 159 -4 181 -1 46 5 57 20 70
89 3 21 11 44 17 51 15 19 3 115 -22 163 -36 70 -77 107 -133 118 -69 15 -118
13 -154 -7z m124 -168 c18 -13 21 -19 11 -30 -15 -18 -63 -18 -78 0 -9 11 -8
18 4 30 21 20 35 20 63 0z m-31 -197 c15 -4 14 -5 -3 -6 -20 -1 -84 58 -84 78
0 25 17 16 41 -23 16 -24 36 -46 46 -49z m123 13 c0 -13 -58 -42 -71 -34 -6 3
5 14 23 24 38 22 48 24 48 10z"/>
<path d="M5383 4380 c-48 -11 -134 -56 -165 -85 -55 -51 -23 -63 38 -14 45 36
109 66 151 70 39 4 98 -42 113 -87 19 -56 23 -31 6 30 -25 84 -61 106 -143 86z"/>
<path d="M2206 4272 c15 -36 74 -121 98 -141 12 -10 23 -1 60 48 25 33 46 63
46 67 0 4 -20 4 -44 1 -38 -5 -55 -1 -110 26 l-65 33 15 -34z m74 -42 c18 -14
21 -20 9 -20 -9 0 -24 9 -34 20 -23 26 -8 26 25 0z"/>
<path d="M2414 4285 c8 -8 17 -15 19 -15 3 0 7 7 11 15 4 11 -2 15 -20 15 -23
0 -24 -2 -10 -15z"/>
<path d="M5248 4249 c-83 -43 -156 -154 -165 -249 -8 -80 1 -90 134 -142 146
-57 167 -55 232 22 30 35 37 50 26 50 -14 0 -15 7 -10 45 5 33 1 64 -16 120
-23 72 -27 78 -79 113 -30 20 -59 43 -63 50 -10 16 -15 15 -59 -9z m7 -152
c20 -16 13 -37 -14 -37 -25 0 -55 25 -47 38 10 16 38 15 61 -1z"/>
<path d="M2311 4033 c-7 -8 -11 -16 -8 -19 2 -2 10 2 17 11 17 20 9 27 -9 8z"/>
<path d="M3526 3491 c-10 -15 43 -26 57 -12 8 8 7 11 -5 11 -9 0 -23 3 -31 6
-8 3 -18 1 -21 -5z"/>
<path d="M5047 3466 c15 -13 30 -22 32 -20 7 7 -31 44 -46 44 -8 0 -2 -10 14
-24z"/>
<path d="M7475 3304 c62 -33 86 -51 153 -116 48 -48 52 -54 52 -99 0 -26 5
-51 10 -54 6 -3 10 -11 10 -18 0 -6 -22 14 -49 44 -27 31 -80 81 -118 111 -66
54 -188 126 -198 116 -5 -5 142 -106 191 -131 30 -16 114 -99 114 -115 0 -4
-5 -13 -11 -19 -9 -9 -9 -20 1 -43 22 -54 3 -43 -31 17 -41 71 -89 125 -180
199 -73 59 -97 67 -56 18 14 -16 37 -58 52 -94 15 -36 37 -84 51 -106 13 -23
26 -60 30 -83 7 -44 24 -57 24 -18 0 34 -29 139 -43 156 -10 11 -9 13 3 9 27
-8 63 -117 68 -205 4 -78 3 -86 -31 -155 -32 -68 -73 -125 -83 -115 -2 2 3 23
11 47 22 61 19 61 -19 -3 -19 -31 -54 -82 -79 -114 -25 -32 -67 -96 -92 -143
-25 -47 -44 -74 -40 -60 4 18 0 14 -15 -12 -11 -21 -23 -38 -27 -38 -6 0 2 63
13 97 4 16 -9 -4 -53 -81 -7 -11 -13 -29 -13 -38 0 -10 -4 -18 -10 -18 -5 0
-10 -8 -10 -17 0 -14 9 -18 39 -18 38 -1 81 -26 81 -47 0 -14 -69 -9 -102 8
-30 16 -32 15 -49 -7 -17 -22 -17 -24 -1 -31 16 -6 16 -7 0 -7 -26 -1 -95 -67
-125 -118 -14 -24 -27 -42 -29 -40 -3 2 -5 21 -6 41 -1 27 7 47 32 79 l32 42
-34 -35 c-42 -43 -61 -77 -82 -151 -17 -56 -17 -56 -63 -63 -65 -9 -123 -27
-117 -38 3 -4 -8 -20 -25 -34 -16 -13 -46 -47 -66 -74 -32 -44 -38 -48 -52
-35 -8 8 -19 15 -24 15 -14 0 25 71 53 97 12 12 37 29 53 37 17 9 23 16 14 16
-37 0 -176 -122 -236 -206 -22 -31 -25 -32 -65 -22 -30 6 -74 5 -143 -3 -55
-7 -90 -15 -77 -17 37 -6 25 -19 -23 -27 -25 -3 -61 -13 -80 -21 -44 -18 -51
-18 -35 1 11 13 8 13 -24 0 -21 -9 -36 -11 -36 -5 0 18 -21 11 -60 -20 -21
-16 -41 -30 -46 -30 -4 0 -25 12 -45 26 -52 36 -125 53 -185 43 -67 -11 -86
-11 -79 0 10 17 -71 3 -116 -19 -55 -28 -52 -25 -41 -47 5 -10 17 -41 25 -70
l16 -52 -30 6 c-29 6 -34 -1 -23 -31 10 -27 204 -76 301 -76 54 0 58 2 99 45
l42 45 63 -20 c110 -34 195 -44 294 -34 l90 9 32 49 c17 27 48 65 68 86 l35
36 134 -3 c77 -1 148 2 165 8 34 12 114 113 152 191 21 45 24 47 80 57 31 5
77 22 101 37 37 23 40 24 24 5 -23 -25 -19 -26 32 -6 43 18 65 54 113 190 l28
80 35 -3 c54 -5 76 12 76 59 0 39 1 40 28 35 18 -4 43 2 77 19 47 23 48 24 15
19 -30 -5 -21 3 55 51 94 59 170 126 236 208 42 53 51 52 19 -1 -27 -44 -25
-50 6 -21 38 36 106 141 100 156 -3 7 0 12 6 10 6 -1 22 29 35 66 28 79 42
197 24 197 -6 0 -11 -10 -11 -23 0 -13 -7 -32 -15 -43 -13 -17 -14 -15 -9 27
4 30 2 49 -5 53 -7 5 -11 -9 -11 -43 0 -82 -17 -58 -23 32 -3 45 -9 91 -13
101 -5 13 -4 17 4 12 6 -4 14 -23 18 -42 3 -19 9 -33 11 -30 11 11 -21 115
-56 181 -20 38 -62 97 -94 130 -32 33 -51 48 -41 33 16 -27 16 -28 -4 -28 -12
0 -24 4 -27 10 -9 14 -136 87 -165 94 -14 4 -2 -5 25 -20z m135 -562 c0 -107
-43 -213 -117 -293 -57 -61 -170 -131 -132 -81 7 9 1 6 -13 -7 -15 -13 -39
-41 -54 -63 -15 -21 -33 -37 -40 -34 -7 3 -15 0 -18 -7 -4 -7 -4 2 -1 18 12
63 229 343 251 322 4 -4 -1 -17 -12 -30 -10 -13 -4 -7 15 12 35 38 72 110 91
180 16 59 30 51 30 -17z m107 -234 c-26 -53 -117 -158 -137 -158 -19 0 -10 18
31 66 22 26 59 72 81 101 22 30 42 52 45 49 3 -3 -6 -29 -20 -58z m-193 -129
c-32 -33 -72 -67 -89 -75 l-30 -15 28 23 c15 13 27 28 27 34 0 13 65 76 72 69
2 -3 13 4 23 15 10 11 21 18 24 15 2 -3 -22 -33 -55 -66z m-464 -316 c-1 -20
-56 -107 -65 -103 -15 7 -7 58 13 86 16 22 52 34 52 17z m60 -44 c-15 -55 -92
-164 -117 -167 -30 -4 -29 2 10 51 19 23 44 60 57 82 25 44 51 77 56 72 2 -2
-1 -19 -6 -38z m-437 -289 c-16 -28 -33 -39 -33 -22 0 13 31 52 41 52 6 0 2
-13 -8 -30z m-1030 -177 c3 -5 -31 -9 -75 -10 -50 -2 -77 1 -73 7 7 12 142 14
148 3z m413 -2 c-6 -8 -66 -21 -66 -14 0 5 43 22 58 22 7 1 11 -3 8 -8z m584
-26 c-14 -8 -29 -14 -35 -14 -5 0 1 6 15 14 14 8 30 14 35 14 6 0 -1 -6 -15
-14z m-1055 -5 c4 -6 -11 -10 -37 -10 -31 0 -39 3 -28 10 20 13 57 13 65 0z
m465 -39 c-19 -4 -46 -11 -60 -15 l-25 -7 25 15 c14 9 41 15 60 14 l35 0 -35
-7z"/>
<path d="M2538 3173 c6 -2 18 -2 25 0 6 3 1 5 -13 5 -14 0 -19 -2 -12 -5z"/>
<path d="M2494 3088 c-84 -57 -135 -157 -102 -201 16 -22 76 -37 103 -26 17 7
16 8 -7 8 -15 1 -38 6 -52 13 -85 38 -1 191 123 224 41 11 43 13 15 13 -20 1
-50 -11 -80 -31z"/>
<path d="M3166 2972 c-3 -5 1 -15 9 -22 16 -14 20 -3 6 19 -5 8 -11 9 -15 3z"/>
<path d="M2621 2544 c0 -11 3 -14 6 -6 3 7 2 16 -1 19 -3 4 -6 -2 -5 -13z"/>
<path d="M2614 2469 c10 -68 46 -130 86 -151 38 -20 134 -25 160 -8 10 7 -7
10 -57 10 -62 0 -76 3 -101 25 -33 28 -72 99 -72 133 0 11 -5 24 -12 28 -8 5
-9 -5 -4 -37z"/>
<path d="M3625 2050 c-3 -5 -1 -10 4 -10 6 0 11 5 11 10 0 6 -2 10 -4 10 -3 0
-8 -4 -11 -10z"/>
<path d="M6698 1873 c7 -3 16 -2 19 1 4 3 -2 6 -13 5 -11 0 -14 -3 -6 -6z"/>
<path d="M2843 1528 c-1 -11 -12 -28 -24 -39 -22 -19 -22 -19 -1 -19 31 0 52
-10 52 -26 0 -7 8 -18 18 -24 18 -12 3 -10 -63 6 -36 9 -85 -32 -124 -105 -18
-34 -38 -61 -45 -61 -24 0 -85 -76 -116 -145 -27 -58 -33 -83 -34 -147 -1 -62
3 -80 19 -98 l19 -21 18 23 17 23 12 -32 c14 -42 25 -42 33 1 6 32 31 64 51
65 5 0 16 26 25 58 19 71 28 86 46 79 7 -3 23 8 35 26 22 30 22 30 33 9 11
-20 13 -19 49 23 43 52 72 65 95 42 14 -14 18 -13 40 11 22 24 26 25 37 10 6
-9 15 -14 18 -10 4 3 12 -8 18 -26 9 -24 15 -30 28 -25 44 18 58 16 78 -16
l20 -32 7 51 c6 42 3 58 -18 98 -46 90 -156 193 -207 193 -24 0 -41 24 -28 37
14 14 3 33 -17 33 -8 0 -14 4 -14 10 0 5 -17 18 -38 29 -38 19 -38 19 -39 -1z"/>
<path d="M3160 1300 c0 -5 9 -14 21 -20 11 -7 27 -26 34 -43 8 -18 14 -26 15
-19 0 26 32 11 46 -23 9 -23 19 -33 29 -29 12 5 10 12 -11 40 -15 19 -30 34
-35 34 -5 0 -26 16 -48 35 -40 36 -51 42 -51 25z"/>
<path d="M3980 1289 c-14 -12 -33 -27 -42 -33 -15 -11 -22 -28 -27 -66 -1 -7
-133 -3 -191 5 -34 5 -60 2 -105 -14 -75 -26 -115 -27 -159 0 -21 12 -41 17
-48 13 -7 -5 -20 -9 -28 -9 -8 0 -14 -8 -13 -18 1 -14 -4 -18 -19 -14 -17 5
-19 2 -13 -21 3 -15 7 -49 9 -77 2 -27 11 -67 20 -88 l16 -37 95 6 c69 5 95 4
95 -5 0 -16 203 -14 305 3 87 15 109 11 79 -12 -17 -13 -16 -14 21 -8 22 3 75
9 118 13 69 5 77 4 77 -12 0 -15 5 -16 33 -10 75 16 107 17 122 5 12 -10 18
-10 30 0 13 10 26 7 77 -20 40 -22 63 -29 66 -22 7 22 37 12 76 -25 34 -33 40
-35 59 -23 20 12 25 9 62 -33 32 -37 45 -45 63 -40 15 3 22 1 22 -8 0 -12 2
-12 9 -1 18 29 -12 122 -39 122 -6 0 -10 6 -10 14 0 7 -7 19 -15 26 -13 11
-14 10 -9 -4 8 -21 -1 -20 -54 5 -26 13 -39 25 -32 29 8 5 7 10 -4 19 -14 11
-14 15 0 36 14 22 13 23 -14 33 -16 5 -41 7 -56 5 -26 -5 -27 -4 -17 16 10 19
9 22 -16 32 -15 5 -39 7 -53 4 l-25 -6 25 20 c24 20 25 20 5 34 -17 13 -26 11
-84 -20 l-65 -34 -10 23 c-5 13 -8 29 -7 36 1 8 -11 12 -41 11 -46 -1 -108 11
-174 34 -29 11 -46 12 -59 5 -13 -8 -24 -7 -36 1 -11 6 -27 11 -37 11 -35 0
-31 13 12 42 27 17 46 38 48 53 6 30 -8 32 -42 4z"/>
<path d="M2055 1226 c-33 -12 -69 -28 -80 -34 l-20 -13 20 5 c11 2 43 10 72
16 46 10 83 33 72 44 -2 2 -31 -6 -64 -18z"/>
<path d="M5445 1219 c-18 -11 -48 -19 -74 -19 -36 0 -41 -2 -32 -14 9 -11 7
-15 -11 -20 -13 -3 -36 -6 -51 -6 l-28 0 22 -31 c12 -17 37 -40 55 -51 18 -11
31 -25 28 -31 -2 -7 10 -20 27 -30 24 -13 29 -20 20 -31 -14 -17 -4 -26 31
-26 15 0 28 -4 28 -10 0 -5 -5 -10 -11 -10 -5 0 -7 -4 -4 -10 3 -5 14 -10 24
-10 10 0 30 -9 44 -20 32 -25 57 -26 57 -1 0 16 13 22 73 36 39 9 98 24 129
33 55 16 58 18 58 50 0 62 -51 127 -124 157 -21 9 -45 23 -53 30 -36 37 -160
45 -208 14z m173 -19 c23 -10 42 -21 42 -24 0 -3 -19 2 -42 10 -24 8 -68 19
-98 23 l-55 9 55 1 c35 0 71 -7 98 -19z"/>
<path d="M2176 1104 c-26 -19 -70 -42 -97 -51 -27 -10 -49 -22 -49 -27 0 -12
54 -1 122 26 43 17 60 29 72 55 19 40 14 40 -48 -3z"/>
<path d="M2905 1031 c-92 -46 -160 -113 -168 -168 -8 -47 0 -74 39 -133 74
-112 228 -102 339 22 43 46 83 129 87 174 3 38 -41 126 -60 119 -7 -2 -25 1
-40 7 -55 23 -122 16 -197 -21z"/>
<path d="M2218 965 c-26 -43 -24 -62 2 -30 7 9 19 14 27 11 9 -4 13 4 13 29 0
19 -3 35 -7 35 -5 0 -20 -21 -35 -45z"/>
<path d="M2304 871 c-11 -40 -20 -57 -26 -49 -5 9 -8 4 -8 -14 0 -46 17 -40
36 14 11 28 24 53 30 55 11 4 34 -80 34 -124 0 -14 19 -62 43 -106 l42 -80 5
44 5 44 41 -58 c33 -46 43 -55 48 -41 6 15 11 13 39 -14 35 -33 133 -83 151
-76 6 2 33 -7 60 -21 27 -14 58 -25 68 -25 16 0 17 3 8 21 -15 26 -7 34 18 20
12 -6 29 -11 39 -11 10 0 -11 15 -46 32 -45 23 -75 47 -100 80 -20 26 -44 57
-53 70 -15 20 -17 20 -11 3 6 -17 5 -18 -9 -7 -9 7 -21 26 -28 42 -7 16 -17
27 -25 24 -7 -3 -18 8 -25 25 -16 38 -30 40 -31 4 l0 -28 -10 25 c-11 26 -58
80 -70 80 -4 0 -9 -12 -11 -27 -3 -24 -10 -15 -46 60 -24 48 -48 87 -53 87 -5
0 -9 -34 -9 -75 0 -41 -4 -75 -9 -75 -5 0 -19 30 -31 68 -34 102 -45 108 -66
33z"/>
<path d="M5118 898 c6 -6 18 -8 28 -6 14 3 12 5 -9 10 -19 3 -25 2 -19 -4z"/>
<path d="M5006 892 c-2 -4 1 -17 8 -29 6 -13 10 -41 8 -63 -3 -33 -8 -40 -25
-40 -20 0 -20 0 -1 -15 29 -22 64 -19 64 5 0 14 7 20 24 20 51 0 86 12 86 31
0 10 -5 21 -11 25 -8 4 -9 -1 -4 -16 6 -20 4 -21 -17 -15 -12 4 -40 16 -61 27
-30 15 -38 24 -34 39 5 19 -27 47 -37 31z m65 -83 c11 -5 17 -14 14 -20 -10
-16 -32 -10 -38 11 -6 23 -3 24 24 9z"/>
<path d="M4798 715 c-9 -9 12 -55 25 -55 6 0 6 5 -1 13 -5 6 -11 20 -13 30 -2
11 -7 16 -11 12z"/>
<path d="M2830 560 c-12 -8 -11 -10 8 -10 12 0 22 5 22 10 0 13 -11 13 -30 0z"/>
</g>
</svg>
